<?xml version="1.0" encoding="utf-8"?>
<svg version="1.1" xmlns="http://www.w3.org/2000/svg" xmlns:xlink="http://www.w3.org/1999/xlink" x="0px" y="0px" width="410px" height="224px" viewBox="0 0 410 224" enable-background="new 0 0 410 224" xml:space="preserve">
<switch>
	<g>
		<g>
			<path fill-rule="evenodd" clip-rule="evenodd" fill="#963D32" d="M400.357,150.774c0.281-3.738,0.761-7.461,1.179-11.188
				c0.137-1.209,0.363-2.407,0.43-2.844c1.025-1.889,2.039-3.104,2.348-4.478c0.486-2.167,0.686-4.441,0.686-6.669
				c0.004-8.312-0.111-16.624-0.2-24.936c-0.183-16.548-0.379-33.096-0.567-49.645c-0.016-1.616-0.14-3.244,0.009-4.846
				c0.281-3.005,0.725-5.996,1.154-9.43c-4.16,0.503-7.638,0.923-11.113,1.342c2.349-1.32,4.803-2.359,7.352-2.718
				c2.908-0.41,3.635-2.08,3.212-4.454c-0.476-2.659-1.331-5.251-1.924-7.509c-4.698-0.522-8.938-0.992-13.276-1.475
				c0.284-0.815,0.436-1.244,0.75-2.154h-13.676c-0.011-0.321-0.021-0.64-0.033-0.96c0.87-0.213,1.74-0.425,2.635-0.643
				c-0.237-0.485-0.461-0.943-0.804-1.647c1.44-0.285,2.68-0.787,3.886-0.712c2.315,0.141,4.884-1.829,7.001,0.703
				c0.059,0.073,1.079-0.656,1.65-1.01c-0.139-0.202-0.278-0.404-0.415-0.606c-0.894-0.144-1.788-0.288-2.68-0.432
				c-0.045-0.235-0.09-0.47-0.135-0.706c0.964-0.39,1.927-0.778,2.964-1.197c-5.451-0.562-10.853-1.121-16.596-1.713
				c-0.09,0.383-0.024,2.192-0.659,2.483c-2.072,0.953-4.375,1.466-6.639,1.892c-0.62,0.116-1.41-0.671-1.75-0.849
				c1.183-0.999,3.005-1.95,2.894-2.543c-0.545-2.938-3.017-3.136-4.747-2.995c-1.165-1.25-1.967-2.108-3.27-3.504
				c0.189,1.788,0.283,2.682,0.386,3.651c-3.326,0.191-6.385,0.365-9.442,0.541c0.036,0.105,0.077,0.209,0.114,0.313
				c-1.998,0.369-3.998,0.737-5.958,1.098c0.787-1.542,1.409-2.766,1.943-3.806c-1.909-0.629-3.341-1.421-4.814-1.509
				c-2.048-0.124-3.167,1.159-2.838,3.619h-11.219c1.142-3.384,1.413-3.415,4.879-0.288c0.097-1.22,0.436-2.155,0.146-2.823
				c-0.26-0.607-1.178-1.261-1.845-1.306c-2.324-0.158-4.667-0.062-7.216-0.062c0.579,0.81,1.022,1.425,1.857,2.592
				c-2.814,0.581-5.138,1.27-7.508,1.5c-3.147,0.306-6.337,0.192-9.502,0.39c-1.077,0.067-2.129,0.78-3.189,0.773
				c-4.453-0.024-8.924-2.026-13.373,0.145c-0.314,0.153-0.74,0.113-1.114,0.109c-6.806-0.083-13.661-0.724-20.401-0.103
				c-6.472,0.596-12.641,0.096-18.827-1.556c-0.487-0.131-1.276-0.186-1.544,0.091c-1.459,1.518-2.293,0.875-3.125-0.632
				c-0.236-0.429-0.852-0.86-1.333-0.911c-3.985-0.419-8.032-0.474-11.96-1.189c-3.502-0.639-7.165,1.191-10.535-0.88
				c-0.338-0.208-1.153,0.113-1.615,0.4c-2.705,1.671-7.426,1.495-9.857-0.304c-0.418-0.31-1.762-0.171-1.768-0.125
				c-0.365,2.904-2.703,1.883-4.135,1.835c-4.897-0.163-10.021,1.933-14.796-1.684c-0.058,1.189-0.098,1.968-0.096,1.93
				c-2.422-0.4-4.702-1.025-6.997-1.092c-3.217-0.094-6.45,0.323-9.677,0.322c-1.161-0.001-2.307-0.745-3.489-0.854
				c-1.612-0.15-3.764-1.924-4.604,1.224c-0.05,0.182-1.587,0.338-1.977-0.006c-1.677-1.488-3.373-1.543-5.474-1.009
				c-1.898,0.481-3.975,0.554-5.936,0.391c-1.881-0.159-3.702-1.155-5.573-1.244c-3.012-0.14-6.043,0.271-9.067,0.262
				c-8.654-0.029-17.316-0.021-25.965-0.301c-3.656-0.118-6.076,1.188-8.197,4.102c-0.961,1.319-3.027,1.834-4.589,2.713
				c-0.482-0.599-0.96-1.198-1.44-1.798c2.317-1.452,4.632-2.905,6.95-4.357c-6.513-0.61-12.542-0.668-18.565-0.583
				c-2.528,0.036-5.457-1.229-7.255,1.922c-0.173,0.301-1.264,0.093-1.931,0.093c-0.97,0-1.946-0.002-2.916-0.045
				c-4.025-0.179-8.05-0.384-12.075-0.557c-3.106-0.133-6.006-0.112-9.233-1.217c-4.068-1.393-8.976-0.336-14.26-0.336
				c0.811,2.399,1.354,4.01,1.946,5.764h-7.014c1.796-1.126,3.13-1.964,4.291-2.693c-1.703-5.576-5.898-0.759-8.436-3.29
				c0.105,3.267,0.101,3.224-2.545,3.475c-1.053,0.1-2.081,0.438-3.12,0.667c0.018,0.262,0.038,0.523,0.058,0.784
				c2.625,0.272,5.25,0.544,7.876,0.815c-0.018,0.071-0.035,0.141-0.056,0.212c-3.836,0.45-7.673,0.901-11.513,1.352
				c-0.398,0.29-0.797,0.578-1.195,0.867c4.115,0.641,1.509,2.227,1.888,4.128h12.531c-3.979,3.291-8.104,2.924-12.25,2.833
				c-3.125-0.068-6.259,0.27-9.381,0.511c-0.283,0.022-0.517,0.666-0.358,0.448c1.551,1.275,2.726,2.838,4.25,3.348
				c2.111,0.705,4.496,0.853,6.748,0.791c1.633-0.045,3.245-0.822,4.865-1.271c0.138,0.406,0.276,0.812,0.415,1.219
				c-1.174,0.311-2.333,0.719-3.526,0.908c-1.375,0.217-2.798,0.431-4.168,0.298c-1.474-0.143-2.911-0.688-4.268-1.034
				c-0.113,0.893-0.218,1.736-0.323,2.579c-0.572-0.325-1.151-0.931-1.715-0.917c-1.361,0.034-2.914,0.023-4.015,0.667
				c-0.983,0.576-1.468,2.004-2.245,3.163c0.427,0.102,1.199,0.286,1.342,0.321c0.567,3.636,1.069,6.844,1.555,9.969
				c-1.191-0.435-2.347-0.856-3.507-1.278c-1.57,4.922-1.57,4.922,0.599,4.512c0.075-1.16,0.143-2.237,0.21-3.315
				c0.284,0.021,0.567,0.042,0.848,0.063v11.668c-1.266-0.679-2.017-1.081-2.967-1.592c0.935-0.831,1.512-1.342,2.089-1.853
				c-0.095-0.212-0.192-0.423-0.291-0.636c-1.016,0.208-2.034,0.416-3.022,0.618v4.813c2.451-0.627,2.966,1.33,3.215,2.778
				c0.581,3.381,1.793,7.147,0.87,10.188C6.993,72.42,8.771,78.05,8.064,83.687c-0.253,2.022-0.792,4.155-0.409,6.078
				c0.795,3.983-0.394,7.526-1.521,11.167c-0.304,0.979-0.292,2.055-0.384,2.789c-0.446,1.649-1.116,2.981-1.118,4.314
				c-0.032,27.101-0.07,54.203,0.138,81.301c0.027,3.722,1.291,7.45,2.139,11.138c0.329,1.432,0.645,3.297,3.08,2.289
				c0.253-0.104,1.035,1.067,1.712,1.797c-1.106,0.226-1.678,0.343-2.794,0.571c1.718,1.996,3.104,3.608,4.148,4.82
				c3.955-0.663,7.443-1.249,11.034-1.853c-0.179,0.509-0.338,0.975-0.675,1.937h12.391c-0.728,1.352-1.126,2.094-1.528,2.837
				c-0.328,0.126-0.659,0.253-0.987,0.379c-0.314-0.755-0.627-1.513-0.941-2.27c-0.18,0.122-0.361,0.242-0.542,0.364
				c0.108,1.105,0.213,2.212,0.276,2.853c-0.863,0.586-1.432,0.972-2.001,1.358c0.559,0.361,1.121,1.04,1.67,1.027
				c2.023-0.045,4.06-0.215,6.062-0.534c1.805-0.29,3.568-0.835,5.351-1.268c-0.81-0.463-1.956-0.877-2.733-0.511
				c-1.894,0.89-2.876,0.271-3.929-2.041c1.896-0.528,3.628-1.501,5.273-1.373c4.514,0.349,9.113-1.56,13.557,0.514
				c0.389,0.182,0.948-0.018,1.427-0.016c7.83,0.012,15.661-0.11,23.48,0.125c2.505,0.075,4.98,1.104,8.115,1.849
				c0.261,0.243,1.033,1.564,2.049,1.791c3.418,0.763,6.919,1.154,10.395,1.645c1.116,0.158,2.25,0.194,4.103,0.342
				c1.798-1.352,5.86-1.27,7.312,0.704c1.946-1.89,10.611-1.865,12.646,0.053c0.344-0.403,0.688-0.806,0.593-0.695
				c1.786,0.43,3.059,0.88,4.364,1.021c3.242,0.35,6.497,0.565,9.749,0.813c0.477,0.035,1.256,0.121,1.393-0.112
				c1.038-1.774,1.82-1.152,2.791,0.071c0.284,0.358,1.149,0.622,1.56,0.458c2.638-1.05,5.196-0.254,7.834-0.038
				c4.183,0.346,8.409,0.197,12.616,0.195c37.87-0.015,75.739-0.058,113.609-0.055c31.799,0.003,63.607,0.052,95.413,0.09
				c5.404,0.007,10.464-1.282,15.054-4.13c2.068-1.282,4.047-2.758,5.884-4.354c3.29-2.86,3.536-4.862,1.605-9.016
				c-0.249-0.538-0.034-1.294-0.034-2.084c1.36,0.307,2.547,0.574,3.723,0.84c1.294-5.139,1.294-5.139-1.899-5.439
				c-0.111-1.453-0.227-2.924-0.311-4.025c1.584,0.197,3.032,0.377,4.562,0.566c0.051,0.42,0.133,1.082,0.217,1.746
				c2.908-4.578,0.324-9.263,0.626-13.906c-2.804,1.451-1.155,3.373-0.362,5.198c-0.753,0.641-1.388,1.177-2.013,1.709
				c-4.073-3.892-1.716-8.955-2.297-13.243c-0.448-3.309,0.29-7.302,0.306-11.019C399.855,158.56,400.067,154.659,400.357,150.774
				 M17.853,38.157c-1.949,0.927,2.375,5.889-3.579,4.225c0.073-0.96,0.326-2.009,0.173-2.994c-0.147-0.951-0.715-1.837-1.25-3.118
				C14.7,36.879,16.091,37.444,17.853,38.157 M13.765,48.722c-0.938-0.337-1.957-0.458-2.954-0.682
				c0.499-2.638,2.294-3.223,6.131-1.359c0.549-0.455,1.151-0.951,2.132-1.763C19.055,48.438,16.767,49.802,13.765,48.722
				 M25.955,204.358c-2.167,0.324-4.112,0.616-6.234,0.932c0.436-1.105,1.013-2.566,1.397-3.541
				c1.386-0.307,2.459-0.814,3.476-0.715C27.469,201.313,25.949,203.235,25.955,204.358 M32.231,204.98
				c-0.281,1.077-0.46,2.181-0.754,3.598c-1.783-1.249-3.641-2.419-2.217-5.386c0.394-0.819-0.206-2.113-0.351-3.213
				C31.845,199.393,33.184,201.312,32.231,204.98 M43.642,17.118c-0.025-0.143-0.05-0.286-0.076-0.428h7.083
				c0,0.142,0.002,0.285,0.002,0.428H43.642z M333.379,13.626c0.521,0.042,1.04,0.083,1.877,0.151
				c-0.936-1.245-1.566-2.087-2.198-2.929c0.187-0.243,0.374-0.484,0.56-0.727c1.462,1.083,3.238,1.943,4.241,3.352
				c0.451,0.631-0.648,2.365-1.148,3.912c0.361,0.267,1.066,0.787,1.843,1.36C334.378,20.612,332.977,19.194,333.379,13.626
				 M349.299,17.475c-1.91,0.086-4.11,0.187-6.581,0.299c-0.132-1.161-0.247-2.169-0.363-3.194c3.173-0.373,6.134-0.719,9.302-1.09
				C351.169,14.314,350.372,15.661,349.299,17.475 M372.648,20.571h-3.315c0.5-1.59,0.883-2.808,1.353-4.293
				c1.006,0.425,1.856,0.783,3.354,1.415c-1.317,0.266-2.042,0.413-3.343,0.675C371.511,19.285,372.054,19.898,372.648,20.571
				 M390.716,202.196c-0.177-1.478-0.332-2.792-0.512-4.31h2.862c0.324,1.96,0.638,3.839,0.968,5.835
				C393.141,203.311,391.812,202.699,390.716,202.196 M390.813,193.467c-0.521,0.479-1.054,0.965-1.564,1.434
				c-0.268-0.209-0.522-0.323-0.514-0.414c0.22-2.758,2.188-3.888,5.096-3.005c1.106,0.337,2.249,0.549,3.286,0.794
				C395.51,195.075,394.661,195.282,390.813,193.467"/>
			<path fill-rule="evenodd" clip-rule="evenodd" fill="#963D32" d="M47.038,217.347c-2.152,0.393-4.005,0.729-5.858,1.065
				c0.038,0.276,0.075,0.553,0.11,0.829h11.315c0.213-0.887,0.447-1.86,0.637-2.659c-2.621-0.499-4.93-0.941-7.4-1.412
				C46.147,215.727,46.503,216.373,47.038,217.347"/>
			<path fill-rule="evenodd" clip-rule="evenodd" fill="#963D32" d="M17.28,17.254c-0.14-1.226-0.449-2.383-0.348-3.505
				c0.085-0.952,0.642-1.863,0.988-2.792c-0.179-0.053-0.359-0.105-0.537-0.158c-0.69,0.662-1.319,1.793-2.084,1.896
				c-2.427,0.328-2.211,2.264-1.81,3.436C13.998,17.613,15.533,18.292,17.28,17.254"/>
			<path fill-rule="evenodd" clip-rule="evenodd" fill="#963D32" d="M372.047,11.071c-0.577-1.239-1.152-2.48-1.837-3.954
				c-0.669,0.581-1.28,1.11-2.189,1.899c1.495,1.037,2.711,1.881,3.929,2.725C371.98,11.518,372.013,11.294,372.047,11.071"/>
			<path fill-rule="evenodd" clip-rule="evenodd" fill="#963D32" d="M378.046,7.909c1.218,0.939,2.439,1.882,3.885,2.997
				C381.092,6.673,380.46,6.218,378.046,7.909"/>
			<path fill-rule="evenodd" clip-rule="evenodd" fill="#FFFFFF" d="M294.238,160.215c0.379-19.544,0.758-39.088,1.142-58.853
				h14.649c-0.653,33.615-1.3,66.939-1.952,100.562c-4.264,0-8.518,0.098-12.76-0.106c-0.625-0.029-1.423-1.408-1.732-2.304
				c-3.774-10.875-7.462-21.778-11.194-32.669c-2.498-7.296-5.029-14.583-7.551-21.87c-0.275-0.802-0.586-1.59-1.477-2.336
				c-0.059,1.3-0.15,2.598-0.17,3.898c-0.243,15.548-0.504,31.096-0.697,46.645c-0.105,8.392-0.05,8.387-8.414,8.285
				c-2.127-0.026-4.254-0.005-6.714-0.005c0.681-33.866,1.351-67.255,2.03-101.04c4.377,0,8.548-0.117,12.699,0.109
				c0.731,0.04,1.701,1.405,2.022,2.343c6.283,18.386,12.485,36.8,18.706,55.208c0.244,0.721,0.51,1.434,0.768,2.15
				C293.808,160.226,294.023,160.221,294.238,160.215"/>
			<path fill-rule="evenodd" clip-rule="evenodd" fill="#FFFFFF" d="M139.706,152.868c4.975,15.457,9.865,30.65,14.838,46.107
				c-5.023,0-9.602,0.1-14.166-0.102c-0.728-0.035-1.763-1.324-2.034-2.221c-3.599-11.932-7.092-23.894-10.598-35.852
				c-1.517-5.182-1.502-5.191-7.014-5.175c-0.857,0.002-1.715,0.077-3.313,0.155v42.644c-5.093,0-9.452,0.11-13.79-0.128
				c-0.604-0.033-1.616-1.791-1.595-2.733c0.278-13.181,0.78-26.356,1.071-39.536c0.418-18.781,0.704-37.567,1.053-56.351
				c0.012-0.582,0.098-1.161,0.143-1.687c0.21-0.176,0.359-0.409,0.501-0.405c9.288,0.191,18.632-0.17,27.845,0.765
				c10.06,1.021,16.409,7.158,18.812,17.112c1.703,7.056,1.66,14.161,0.273,21.238C150.343,143.796,146.622,149.323,139.706,152.868
				 M118.43,142.714c3.182,0,6.302,0.071,9.417-0.015c5.369-0.15,8.72-2.865,9.369-8.188c0.532-4.337,0.682-8.765,0.487-13.13
				c-0.177-3.964-1.643-7.843-5.949-8.831c-4.173-0.958-8.566-0.953-13.324-1.416V142.714z"/>
			<path fill-rule="evenodd" clip-rule="evenodd" fill="#FFFFFF" d="M180.662,150.223c0-9.676-0.251-19.361,0.063-29.027
				c0.411-12.721,10.635-22.25,23.603-22.497c13.097-0.248,23.972,9.004,24.557,21.757c0.47,10.237-0.047,20.521-0.187,30.783
				c-0.115,8.601-0.34,17.2-0.474,25.8c-0.221,14.006-10.729,24.399-24.686,24.27c-12.854-0.123-25.05-10.007-24.13-26.17
				c0.471-8.278,0.083-16.608,0.083-24.916C179.879,150.223,180.271,150.223,180.662,150.223 M195.347,149.668
				c-0.374,0-0.747,0-1.121,0c0,9.098-0.036,18.195,0.02,27.293c0.018,3.018,0.772,5.684,3.516,7.614
				c6.562,4.616,15.584,1.078,15.694-8.194c0.208-17.808,0.631-35.613,0.833-53.421c0.068-6.02-3.654-9.609-9.438-9.598
				c-5.833,0.009-9.412,3.516-9.479,9.597C195.274,131.862,195.347,140.766,195.347,149.668"/>
			<path fill-rule="evenodd" clip-rule="evenodd" fill="#FFFFFF" d="M77.629,110.55H48.68v30.083h24.147v13.85H47.692
				c0,3.645,0.029,7.127-0.005,10.608c-0.096,9.569-0.304,19.141-0.276,28.71c0.007,2.762-0.677,3.811-3.644,3.553
				c-3.667-0.321-7.38-0.077-11.576-0.077c0.727-33.925,1.441-67.273,2.159-100.802c6.099,0,11.942-0.059,17.78,0.015
				c7.435,0.093,14.871,0.436,22.301,0.372c2.834-0.024,3.468,0.903,3.26,3.541C77.433,103.697,77.629,107.029,77.629,110.55"/>
			<path fill-rule="evenodd" clip-rule="evenodd" fill="#FFFFFF" d="M380.455,116.362h-16.748c-0.576,28.937-1.15,57.8-1.724,86.652
				h-14.65c0.53-29.062,1.053-57.835,1.586-87.074h-16.354v-13.402h47.89V116.362z"/>
			<path fill-rule="evenodd" clip-rule="evenodd" fill="#FFFFFF" d="M244.318,29.799v4.079c0.629-0.773,1.01-1.106,1.217-1.524
				c0.859-1.746,2.089-2.52,4.166-2.439c7.135,0.277,14.276,0.464,21.417,0.461c2.881,0,4.544,1.376,5.102,3.857
				c0.595,2.64,0.896,5.407,0.872,8.115c-0.105,11.538-0.375,23.075-0.593,34.612c-0.067,3.574-1.881,5.807-5.533,5.797
				c-11.147-0.029-22.301-0.238-33.443-0.583c-3.53-0.109-5.591-2.916-5.54-7.018c0.127-9.874,0.344-19.749,0.543-29.623
				c0.076-3.714,0.275-7.427,0.275-11.141c0.001-1.725,0.413-2.656,2.339-2.9C238.102,31.12,241.02,30.426,244.318,29.799
				 M243.977,70.964h21.203V41.706h-21.203V70.964z"/>
			<path fill-rule="evenodd" clip-rule="evenodd" fill="#FFFFFF" d="M185.213,39.533c0.506-3.603,0.984-6.973,1.467-10.41
				c0.409-0.143,0.765-0.379,1.113-0.372c8.307,0.17,16.617,0.22,24.909,0.607c5.945,0.277,7.97,2.279,9.146,7.936
				c0.154,0.74,0.559,1.427,0.893,2.252c-1.878,2.972-3.913,6.19-6.063,9.592c0.724,0.089,1.535,0.149,2.331,0.292
				c3.801,0.683,5.797,3.029,5.787,6.893c-0.014,4.792-0.009,9.587-0.162,14.375c-0.208,6.501-3.475,10.297-9.825,11.669
				c-5.64,1.219-12.577,0.269-17.106-2.384c0.108-0.433,0.164-0.92,0.349-1.353c1.146-2.678,2.32-5.344,3.465-7.969
				c2.668,0.562,5.124,1.138,7.604,1.583c2.277,0.408,3.604-0.744,3.849-2.939c0.377-3.372,0.584-6.762,0.899-10.597h-7.384h-7.53
				c0,2.903,0.353,5.575-0.088,8.109c-0.562,3.213-1.336,6.531-2.799,9.409c-2.162,4.259-6.447,5.721-11.305,4.589
				c0-2.783-0.004-5.589,0.007-8.395c0.003-0.283,0.043-0.759,0.196-0.82c2.678-1.07,2.975-3.259,2.869-5.74
				c-0.095-2.231-0.02-4.47-0.02-6.867c-0.948-0.181-1.771-0.337-2.741-0.523v-9.483c1.309-0.149,2.425-0.276,4.173-0.476
				c-0.489-2.82-0.968-5.572-1.474-8.478C187.157,39.914,186.415,39.768,185.213,39.533 M208.72,40.3h-9.069v7.704
				C205.604,48.033,209.118,45.121,208.72,40.3"/>
			<path fill-rule="evenodd" clip-rule="evenodd" fill="#FFFFFF" d="M336.472,36.247c-1.064-1.279-1.938-2.329-3.081-3.701
				c1.526,0,2.304,0.057,3.07-0.01c3.814-0.335,7.628-1.001,11.44-0.996c7.112,0.011,14.221,0.428,21.334,0.631
				c5.164,0.147,7.079,2.048,6.99,7.155c-0.055,3.031-0.196,6.061-0.286,9.092c-0.049,1.783,0.386,3.111,1.601,2.873
				c-0.37,0.477-1.634,1.443-1.979,2.668c-1.158,4.141-3.822,6.684-7.653,8.272c-0.97,0.402-1.865,0.99-2.925,1.562
				c2.856,5.078,5.73,9.919,12.266,11.072c-0.358,3.907-0.7,7.64-1.047,11.424c-12.567,0.077-16.368-9.651-21.575-18.257
				c-1.268,0.562-2.802,0.991-4.018,1.865c-0.852,0.613-1.738,1.806-1.793,2.786c-0.208,3.699-0.083,7.418-0.083,11.388h-10.877
				c-0.103-0.559-0.227-0.852-0.195-1.127c0.661-5.875-0.3-11.441-3.254-16.593c-0.855-1.491-0.636-2.315,1.066-2.784
				c2.113-0.583,2.822-2.057,2.664-4.204c-0.187-2.527-0.258-5.072-0.207-7.605c0.068-3.247-0.201-6.739,3.916-8.383h-6.462
				C335.806,40.613,336.174,38.197,336.472,36.247 M349.401,43.517v14.447c3.869-1.421,7.61-2.706,11.278-4.168
				c4.209-1.675,5.462-4.908,3.788-9.469c-1.014,0.22-2.073,0.715-3.054,0.587c-0.909-0.12-1.707-1.277-2.593-1.329
				C355.822,43.407,352.805,43.517,349.401,43.517"/>
			<path fill-rule="evenodd" clip-rule="evenodd" fill="#FFFFFF" d="M166.014,59.578c2.71,5.39,5.68,10.045,12.26,11.048
				c-0.396,3.984-0.778,7.824-1.164,11.708c-12.438,0.021-16.422-9.517-21.363-18.361c-1.401,0.606-2.937,1.012-4.14,1.878
				c-0.852,0.611-1.73,1.82-1.783,2.806c-0.206,3.776-0.083,7.571-0.083,11.471h-11.38c0.705-6.913,0.296-13.456-4.246-19.511
				c5.763-1.282,4.837-5.353,4.893-8.984c0.025-1.466,0.03-2.935,0.038-4.403c0.017-3.074-0.689-6.494,3.624-7.84
				c-1.968-0.144-3.94-0.288-6.362-0.465c0.792-3.555,1.469-6.951,2.372-10.285c0.141-0.519,1.314-1.089,2.001-1.081
				c10.465,0.138,20.93,0.32,31.395,0.606c2.921,0.079,5.096,2.382,5.081,5.402c-0.025,4.986-0.085,9.99-0.526,14.951
				c-0.344,3.884-2.25,7.036-6.009,8.766C169.118,57.977,167.659,58.757,166.014,59.578 M150.346,53.755
				c4.534-1.729,8.883-3.186,13.023-5.097c1.156-0.536,2.046-2.317,2.419-3.7c0.411-1.538,0.093-3.272,0.093-5.252h-15.536V53.755z"
				/>
			<path fill-rule="evenodd" clip-rule="evenodd" fill="#FFFFFF" d="M61.72,55.21c-3.122,0-5.953-0.125-8.767,0.032
				c-3.248,0.182-6.265,0.13-7.458-4.066c-0.344,0.179-0.688,0.358-1.031,0.539c0,6.896-0.002,13.791,0,20.688
				c0.003,5.229,0.005,5.25-5.021,6.084c-2.111,0.35-4.241,0.584-6.658,0.911c-0.073-1.018-0.195-1.856-0.184-2.693
				c0.251-15.246,0.535-30.491,0.75-45.737c0.023-1.564-0.341-3.134-0.552-4.934h12.434v17.82h16.737V26.735h11.816
				c0,5.112-0.02,10.062,0.015,15.013c0.007,1.251-0.567,2.74,1.379,3.355c0.409,0.129,0.607,1.346,0.667,2.08
				c0.216,2.624,0.332,5.256,0.497,8.107c-2.985,0.042-3.042,1.976-3.01,4.144c0.058,3.812-0.025,7.627-0.098,11.439
				c-0.073,3.772-1.944,6.403-5.607,7.209c-3.288,0.724-6.681,0.98-10.301,1.479V68.959c3.744-0.357,4.644-2.686,4.423-5.95
				C61.589,60.598,61.72,58.167,61.72,55.21"/>
			<path fill-rule="evenodd" clip-rule="evenodd" fill="#FFFFFF" d="M95.92,41.815H85.049c0.289-3.678,0.455-6.958,0.901-10.201
				c0.067-0.5,1.416-1.148,2.189-1.168c3.223-0.084,6.46-0.086,9.673,0.142c2.079,0.146,3.237-0.487,3.866-2.504
				c0.487-1.555,1.327-2.999,2.12-4.734c3.222,1.281,6.257,2.488,9.406,3.741c-0.243,1.149-0.441,2.073-0.774,3.642h15.057
				c-0.592,3.995-0.993,7.341-1.668,10.632c-0.116,0.568-1.357,1.208-2.126,1.281c-1.913,0.185-3.857,0.061-6.227,0.061
				c4.17,11.865,8.258,23.496,12.473,35.489c-3.545,1.143-6.839,2.203-10.495,3.381c-4.281-12.039-8.504-23.914-12.897-36.272
				c-5.407,12.083-10.577,23.638-15.846,35.412c-3.526-1.142-6.833-2.214-10.538-3.413C85.36,65.594,90.481,54.064,95.92,41.815"/>
			<path fill-rule="evenodd" clip-rule="evenodd" fill="#FFFFFF" d="M296.432,30.023c-0.457,6.6-0.939,12.807-1.3,19.021
				c-0.303,5.242,0.537,10.27,2.732,15.117c2.052,4.53,5.423,6.803,10.293,6.813c2.617,0.005,5.235-0.289,8.219-0.469V32.513
				c-0.179,0.014-0.77,0.062-1.357,0.108c4.225-2.746,8.625-0.69,13.115-0.889v13.219c0,6.19,0.096,12.384-0.028,18.572
				c-0.115,5.648-0.405,11.296-0.789,16.932c-0.051,0.74-1.044,1.924-1.728,2.023c-3.053,0.44-6.15,0.561-9.391,0.81
				c-0.137-1.337-0.243-2.37-0.354-3.439c-0.264,0.103-0.512,0.122-0.553,0.225c-1.832,4.475-2.099,4.636-7.047,4.167
				c-1.751-0.166-3.504-0.283-5.241-0.527c-11.007-1.543-15.286-9.524-17.591-18.982c-2.459-10.08-2.258-20.342-1.078-30.604
				c0.197-1.714,0.854-2.554,2.64-2.745C290.064,31.051,293.137,30.51,296.432,30.023"/>
			<path fill-rule="evenodd" clip-rule="evenodd" fill="#FFFFFF" d="M108.032,62.739c2.092,2.415,3.925,4.532,5.059,5.839
				c-3.561,4.044-6.892,7.828-10.425,11.842c-2.139-2.376-4.005-4.45-5.391-5.99C100.883,70.51,104.349,66.744,108.032,62.739"/>
			<path fill-rule="evenodd" clip-rule="evenodd" fill="#FFFFFF" d="M260.373,44.997c1.316,0.958,2.185,1.588,3.525,2.564
				c-1.186,0.69-2.299,1.435-3.508,1.96c-0.243,0.106-1.269-0.712-1.215-0.935C259.481,47.291,260.002,46.045,260.373,44.997"/>
		</g>
	</g>
</switch>
</svg>
